<?xml version="1.0" encoding="UTF-8" standalone="no"?>
<!-- Created with Inkscape (http://www.inkscape.org/) -->

<svg
   xmlns:dc="http://purl.org/dc/elements/1.1/"
   xmlns:cc="http://creativecommons.org/ns#"
   xmlns:rdf="http://www.w3.org/1999/02/22-rdf-syntax-ns#"
   xmlns:svg="http://www.w3.org/2000/svg"
   xmlns="http://www.w3.org/2000/svg"
   xmlns:sodipodi="http://sodipodi.sourceforge.net/DTD/sodipodi-0.dtd"
   xmlns:inkscape="http://www.inkscape.org/namespaces/inkscape"
   width="36.3153mm"
   height="7.9375mm"
   viewBox="0 0 36.3153 7.9375"
   id="svg2"
   version="1.1"
   inkscape:version="0.91+devel+osxmenu r12922"
   sodipodi:docname="nescode.svg">
  <defs
     id="defs4" />
  <sodipodi:namedview
     id="base"
     pagecolor="#ffffff"
     bordercolor="#666666"
     borderopacity="1.0"
     inkscape:pageopacity="0.0"
     inkscape:pageshadow="2"
     inkscape:zoom="1"
     inkscape:cx="91.337565"
     inkscape:cy="-120.60282"
     inkscape:document-units="mm"
     inkscape:current-layer="layer1"
     showgrid="false"
     inkscape:window-width="1280"
     inkscape:window-height="711"
     inkscape:window-x="0"
     inkscape:window-y="23"
     inkscape:window-maximized="0"
     fit-margin-top="0"
     fit-margin-left="0"
     fit-margin-right="0"
     fit-margin-bottom="0" />
  <metadata
     id="metadata7">
    <rdf:RDF>
      <cc:Work
         rdf:about="">
        <dc:format>image/svg+xml</dc:format>
        <dc:type
           rdf:resource="http://purl.org/dc/dcmitype/StillImage" />
        <dc:title></dc:title>
      </cc:Work>
    </rdf:RDF>
  </metadata>
  <g
     inkscape:label="Layer 1"
     inkscape:groupmode="layer"
     id="layer1"
     transform="translate(27.134048,-137.24422)">
    <g
       id="g4502"
       transform="translate(51.59375,-41.539583)">
      <g
         id="g4498">
        <circle
           cy="182.75255"
           cx="-74.759048"
           style="fill:#007ce1;fill-opacity:1;stroke-width:0.28196216"
           id="path3151"
           r="3.96875" />
        <path
           id="path3142-8"
           d="m -75.782106,180.66471 c -0.423546,0 -0.767293,0.35076 -0.767293,0.78294 0,0.34241 0.211773,0.62737 0.511529,0.73385 l 0,1.14206 c -0.299756,0.10647 -0.511529,0.39149 -0.511529,0.73389 0,0.43219 0.343747,0.78294 0.767293,0.78294 0.423546,0 0.767294,-0.35075 0.767294,-0.78294 0,-0.31058 -0.174432,-0.57466 -0.431731,-0.70151 0.04604,-0.0469 0.104864,-0.0814 0.175967,-0.0814 l 1.023057,0 c 0.420989,0 0.767293,-0.35334 0.767293,-0.78294 l 0,-0.31006 c 0.299757,-0.10648 0.511529,-0.39145 0.511529,-0.73385 0,-0.43218 -0.343747,-0.78294 -0.767292,-0.78294 -0.423547,0 -0.767294,0.35076 -0.767294,0.78294 0,0.3424 0.211773,0.62737 0.511529,0.73385 l 0,0.31006 c 0,0.14456 -0.114071,0.26098 -0.255765,0.26098 l -1.023057,0 c -0.08747,0 -0.17699,0.0209 -0.255766,0.0491 l 0,-0.62009 c 0.299757,-0.10648 0.51153,-0.39153 0.51153,-0.73394 0,-0.43218 -0.343748,-0.78294 -0.767294,-0.78294 z"
           inkscape:connector-curvature="0"
           style="fill:#ffffff;fill-opacity:1;stroke-width:0.28196216" />
      </g>
      <text
         inkscape:export-ydpi="90"
         inkscape:export-xdpi="90"
         transform="scale(1.0304651,0.97043558)"
         sodipodi:linespacing="125%"
         id="text3947"
         y="190.45444"
         x="-67.945923"
         style="font-style:normal;font-weight:normal;font-size:6.00420713px;line-height:125%;font-family:Sans;letter-spacing:0px;word-spacing:0px;fill:#1a1a1a;fill-opacity:1;stroke:none;stroke-width:0.28196216"
         xml:space="preserve"><tspan
           style="font-style:normal;font-variant:normal;font-weight:bold;font-stretch:normal;font-family:Roboto;-inkscape-font-specification:'Roboto Bold';fill:#1a1a1a;fill-opacity:1;stroke-width:0.28196216"
           y="190.45444"
           x="-67.945923"
           id="tspan3949"
           sodipodi:role="line">NESCODE</tspan></text>
    </g>
  </g>
</svg>
